<svg xmlns="http://www.w3.org/2000/svg" viewBox="0 0 451.03 252.48"><defs><style>.cls-1,.cls-4{fill:#f6861f;}.cls-2{font-size:200px;fill:#2d2c79;}.cls-2,.cls-4{font-family:TTNormsPro-Bold, TT Norms Pro;font-weight:700;}.cls-3{letter-spacing:-0.03em;}.cls-4{font-size:36px;letter-spacing:0.02em;}.cls-5{fill:#231f20;}.cls-5,.cls-6{letter-spacing:0.02em;}.cls-6,.cls-7,.cls-8,.cls-9{fill:#fff;}.cls-7{letter-spacing:0.01em;}.cls-8{letter-spacing:0.01em;}</style></defs><g id="Layer_2" data-name="Layer 2"><g id="Layer_1-2" data-name="Layer 1"><path class="cls-1" d="M78.59,175.58,34.23,50.74a9.82,9.82,0,0,0-17.45-2.11A100.58,100.58,0,0,0,0,104.62C.11,159.75,45.05,205,100.18,205.48a101.08,101.08,0,0,0,102-101.89C201.71,48.76,157,3.9,102.14,3.34A101.07,101.07,0,0,0,68.52,8.69,13.81,13.81,0,0,0,60.06,26.4l38.3,107.81a4.3,4.3,0,0,0,8,.27L146.84,40.9a9.21,9.21,0,0,1,11-5.18h0a21,21,0,0,1,13.38,28.46l-50.8,117.41a6.54,6.54,0,0,1-.48,1c-6.66,10.33-19.74,14.43-30,7.56h0A29.43,29.43,0,0,1,78.59,175.58Z"/><text class="cls-2" transform="translate(212.03 170)">S<tspan class="cls-3" x="117" y="0">F</tspan></text><text class="cls-4" transform="translate(40.19 243.84)">voyage<tspan class="cls-5" x="123.84" y="0"> </tspan><tspan class="cls-6" x="132.12" y="0">sans f</tspan><tspan class="cls-7" x="230.94" y="0">r</tspan><tspan class="cls-6" x="244.98" y="0">o</tspan><tspan class="cls-8" x="266.94" y="0">n</tspan><tspan class="cls-9" x="288.72" y="0">tié</tspan><tspan class="cls-8" x="335.33" y="0">r</tspan><tspan class="cls-9" x="349.38" y="0">es</tspan><tspan x="387.71" y="0">.</tspan></text></g></g></svg>