<?xml version="1.0" standalone="no"?>
<svg viewBox="0 0 200 200" xmlns="http://www.w3.org/2000/svg">
  <path fill="#27187E" d="M34.4,-50.7C48.3,-44.6,65.8,-41.3,69.4,-32.1C73,-22.8,62.8,-7.6,60.9,9.1C59,25.8,65.4,44,59.8,53.5C54.2,62.9,36.5,63.6,21.8,62.6C7,61.6,-4.8,59,-14.9,54.4C-25,49.7,-33.5,43,-43.7,35.5C-53.9,27.9,-65.9,19.6,-73.9,6.7C-81.8,-6.2,-85.8,-23.6,-80.7,-37.7C-75.6,-51.9,-61.5,-62.8,-46.6,-68.4C-31.6,-74,-15.8,-74.2,-2.8,-69.9C10.3,-65.6,20.5,-56.8,34.4,-50.7Z" transform="translate(100 100)" />
</svg>
